<mxfile host="app.diagrams.net" agent="Mozilla/5.0 (Windows NT 10.0; Win64; x64) AppleWebKit/537.36 (KHTML, like Gecko) Chrome/131.0.0.0 Safari/537.36" version="25.0.3">
  <diagram name="Page-1" id="P2XdZQBQtvuNtlfGF5m1">
    <mxGraphModel dx="1135" dy="600" grid="1" gridSize="10" guides="1" tooltips="1" connect="1" arrows="1" fold="1" page="1" pageScale="1" pageWidth="850" pageHeight="1100" math="0" shadow="0">
      <root>
        <mxCell id="0" />
        <mxCell id="1" parent="0" />
        <mxCell id="dKi2m8iZU2WcHvJxLKiq-3" value="" style="edgeStyle=orthogonalEdgeStyle;rounded=0;orthogonalLoop=1;jettySize=auto;html=1;" edge="1" parent="1" source="dKi2m8iZU2WcHvJxLKiq-1" target="dKi2m8iZU2WcHvJxLKiq-2">
          <mxGeometry relative="1" as="geometry" />
        </mxCell>
        <mxCell id="dKi2m8iZU2WcHvJxLKiq-1" value="เริ่ม" style="strokeWidth=2;html=1;shape=mxgraph.flowchart.start_1;whiteSpace=wrap;" vertex="1" parent="1">
          <mxGeometry x="340" y="60" width="100" height="60" as="geometry" />
        </mxCell>
        <mxCell id="dKi2m8iZU2WcHvJxLKiq-5" value="" style="edgeStyle=orthogonalEdgeStyle;rounded=0;orthogonalLoop=1;jettySize=auto;html=1;" edge="1" parent="1" source="dKi2m8iZU2WcHvJxLKiq-2" target="dKi2m8iZU2WcHvJxLKiq-4">
          <mxGeometry relative="1" as="geometry" />
        </mxCell>
        <mxCell id="dKi2m8iZU2WcHvJxLKiq-2" value="กำหนดตัวแปร&lt;div&gt;ตัวเลขเข้า&lt;/div&gt;&lt;div&gt;ผลลัพ&lt;/div&gt;" style="whiteSpace=wrap;html=1;strokeWidth=2;" vertex="1" parent="1">
          <mxGeometry x="330" y="200" width="120" height="60" as="geometry" />
        </mxCell>
        <mxCell id="dKi2m8iZU2WcHvJxLKiq-9" value="" style="edgeStyle=orthogonalEdgeStyle;rounded=0;orthogonalLoop=1;jettySize=auto;html=1;" edge="1" parent="1" source="dKi2m8iZU2WcHvJxLKiq-4" target="dKi2m8iZU2WcHvJxLKiq-8">
          <mxGeometry relative="1" as="geometry" />
        </mxCell>
        <mxCell id="dKi2m8iZU2WcHvJxLKiq-4" value="กรอกค่าเลขที่จะเอาไปแฟก&lt;span style=&quot;white-space: pre;&quot;&gt;&#x9;&lt;/span&gt;" style="shape=parallelogram;perimeter=parallelogramPerimeter;whiteSpace=wrap;html=1;fixedSize=1;strokeWidth=2;" vertex="1" parent="1">
          <mxGeometry x="330" y="340" width="120" height="60" as="geometry" />
        </mxCell>
        <mxCell id="dKi2m8iZU2WcHvJxLKiq-11" value="" style="edgeStyle=orthogonalEdgeStyle;rounded=0;orthogonalLoop=1;jettySize=auto;html=1;" edge="1" parent="1" source="dKi2m8iZU2WcHvJxLKiq-21" target="dKi2m8iZU2WcHvJxLKiq-10">
          <mxGeometry relative="1" as="geometry" />
        </mxCell>
        <mxCell id="dKi2m8iZU2WcHvJxLKiq-8" value="กำหนดตัวแปรตัวเลขขาเข้าเท่ากับเลขที่เอาคำนวน" style="whiteSpace=wrap;html=1;strokeWidth=2;" vertex="1" parent="1">
          <mxGeometry x="330" y="480" width="120" height="60" as="geometry" />
        </mxCell>
        <mxCell id="dKi2m8iZU2WcHvJxLKiq-13" value="" style="edgeStyle=orthogonalEdgeStyle;rounded=0;orthogonalLoop=1;jettySize=auto;html=1;" edge="1" parent="1" source="dKi2m8iZU2WcHvJxLKiq-10" target="dKi2m8iZU2WcHvJxLKiq-12">
          <mxGeometry relative="1" as="geometry" />
        </mxCell>
        <mxCell id="dKi2m8iZU2WcHvJxLKiq-24" style="edgeStyle=orthogonalEdgeStyle;rounded=0;orthogonalLoop=1;jettySize=auto;html=1;" edge="1" parent="1" source="dKi2m8iZU2WcHvJxLKiq-10">
          <mxGeometry relative="1" as="geometry">
            <mxPoint x="390" y="1310" as="targetPoint" />
            <Array as="points">
              <mxPoint x="520" y="700" />
              <mxPoint x="520" y="1290" />
            </Array>
          </mxGeometry>
        </mxCell>
        <mxCell id="dKi2m8iZU2WcHvJxLKiq-10" value="ตัวเลขที่เอาคำนวนมากกว่า1ไหม" style="rhombus;whiteSpace=wrap;html=1;strokeWidth=2;" vertex="1" parent="1">
          <mxGeometry x="290" y="610" width="200" height="180" as="geometry" />
        </mxCell>
        <mxCell id="dKi2m8iZU2WcHvJxLKiq-17" value="" style="edgeStyle=orthogonalEdgeStyle;rounded=0;orthogonalLoop=1;jettySize=auto;html=1;" edge="1" parent="1" source="dKi2m8iZU2WcHvJxLKiq-12" target="dKi2m8iZU2WcHvJxLKiq-16">
          <mxGeometry relative="1" as="geometry" />
        </mxCell>
        <mxCell id="dKi2m8iZU2WcHvJxLKiq-12" value="ค่าตัวเลขที่เอาคำนวน" style="shape=parallelogram;perimeter=parallelogramPerimeter;whiteSpace=wrap;html=1;fixedSize=1;strokeWidth=2;" vertex="1" parent="1">
          <mxGeometry x="310" y="860" width="160" height="60" as="geometry" />
        </mxCell>
        <mxCell id="dKi2m8iZU2WcHvJxLKiq-14" value="ไม่จริง" style="text;html=1;align=center;verticalAlign=middle;whiteSpace=wrap;rounded=0;" vertex="1" parent="1">
          <mxGeometry x="400" y="780" width="60" height="30" as="geometry" />
        </mxCell>
        <mxCell id="dKi2m8iZU2WcHvJxLKiq-15" value="จริง" style="text;html=1;align=center;verticalAlign=middle;whiteSpace=wrap;rounded=0;" vertex="1" parent="1">
          <mxGeometry x="460" y="650" width="60" height="30" as="geometry" />
        </mxCell>
        <mxCell id="dKi2m8iZU2WcHvJxLKiq-19" value="" style="edgeStyle=orthogonalEdgeStyle;rounded=0;orthogonalLoop=1;jettySize=auto;html=1;" edge="1" parent="1" source="dKi2m8iZU2WcHvJxLKiq-16" target="dKi2m8iZU2WcHvJxLKiq-18">
          <mxGeometry relative="1" as="geometry" />
        </mxCell>
        <mxCell id="dKi2m8iZU2WcHvJxLKiq-16" value="ผลลัพเท่ากับผลลัพคูณตัวเลขคำนวน" style="whiteSpace=wrap;html=1;strokeWidth=2;" vertex="1" parent="1">
          <mxGeometry x="330" y="1000" width="120" height="60" as="geometry" />
        </mxCell>
        <mxCell id="dKi2m8iZU2WcHvJxLKiq-20" style="edgeStyle=orthogonalEdgeStyle;rounded=0;orthogonalLoop=1;jettySize=auto;html=1;entryX=0;entryY=0.5;entryDx=0;entryDy=0;entryPerimeter=0;" edge="1" parent="1" source="dKi2m8iZU2WcHvJxLKiq-18" target="dKi2m8iZU2WcHvJxLKiq-21">
          <mxGeometry relative="1" as="geometry">
            <mxPoint x="380" y="570" as="targetPoint" />
            <Array as="points">
              <mxPoint x="390" y="1240" />
              <mxPoint x="230" y="1240" />
              <mxPoint x="230" y="570" />
            </Array>
          </mxGeometry>
        </mxCell>
        <mxCell id="dKi2m8iZU2WcHvJxLKiq-18" value="ตัวเลขคำนวนลบ1" style="whiteSpace=wrap;html=1;strokeWidth=2;" vertex="1" parent="1">
          <mxGeometry x="330" y="1140" width="120" height="60" as="geometry" />
        </mxCell>
        <mxCell id="dKi2m8iZU2WcHvJxLKiq-22" value="" style="edgeStyle=orthogonalEdgeStyle;rounded=0;orthogonalLoop=1;jettySize=auto;html=1;" edge="1" parent="1" source="dKi2m8iZU2WcHvJxLKiq-8" target="dKi2m8iZU2WcHvJxLKiq-21">
          <mxGeometry relative="1" as="geometry">
            <mxPoint x="390" y="540" as="sourcePoint" />
            <mxPoint x="390" y="610" as="targetPoint" />
          </mxGeometry>
        </mxCell>
        <mxCell id="dKi2m8iZU2WcHvJxLKiq-21" value="" style="verticalLabelPosition=bottom;verticalAlign=top;html=1;shape=mxgraph.flowchart.on-page_reference;" vertex="1" parent="1">
          <mxGeometry x="380" y="560" width="20" height="20" as="geometry" />
        </mxCell>
        <mxCell id="dKi2m8iZU2WcHvJxLKiq-27" value="" style="edgeStyle=orthogonalEdgeStyle;rounded=0;orthogonalLoop=1;jettySize=auto;html=1;" edge="1" parent="1" source="dKi2m8iZU2WcHvJxLKiq-25" target="dKi2m8iZU2WcHvJxLKiq-26">
          <mxGeometry relative="1" as="geometry" />
        </mxCell>
        <mxCell id="dKi2m8iZU2WcHvJxLKiq-25" value="ผลลัพคูณ1" style="whiteSpace=wrap;html=1;strokeWidth=2;" vertex="1" parent="1">
          <mxGeometry x="330" y="1310" width="120" height="60" as="geometry" />
        </mxCell>
        <mxCell id="dKi2m8iZU2WcHvJxLKiq-29" value="" style="edgeStyle=orthogonalEdgeStyle;rounded=0;orthogonalLoop=1;jettySize=auto;html=1;" edge="1" parent="1" source="dKi2m8iZU2WcHvJxLKiq-26" target="dKi2m8iZU2WcHvJxLKiq-28">
          <mxGeometry relative="1" as="geometry" />
        </mxCell>
        <mxCell id="dKi2m8iZU2WcHvJxLKiq-26" value="แสดงค่าตัวที่คูณทั้งหมด&lt;div&gt;และผลลัพคำตอบ&lt;/div&gt;" style="shape=parallelogram;perimeter=parallelogramPerimeter;whiteSpace=wrap;html=1;fixedSize=1;strokeWidth=2;" vertex="1" parent="1">
          <mxGeometry x="310" y="1450" width="160" height="60" as="geometry" />
        </mxCell>
        <mxCell id="dKi2m8iZU2WcHvJxLKiq-28" value="จบ" style="strokeWidth=2;html=1;shape=mxgraph.flowchart.start_1;whiteSpace=wrap;" vertex="1" parent="1">
          <mxGeometry x="340" y="1550" width="100" height="60" as="geometry" />
        </mxCell>
      </root>
    </mxGraphModel>
  </diagram>
</mxfile>
